<?xml version="1.0" ?><!DOCTYPE svg  PUBLIC '-//W3C//DTD SVG 1.1//EN'  'http://www.w3.org/Graphics/SVG/1.1/DTD/svg11.dtd'><svg enable-background="new 0 0 24 24" height="24px" id="Layer_1" version="1.1" viewBox="0 0 24 24" width="24px" xml:space="preserve" xmlns="http://www.w3.org/2000/svg" xmlns:xlink="http://www.w3.org/1999/xlink"><g><path d="M8.7,14.6H6.8c-0.3,0-0.5-0.2-0.5-0.5V9.7c0-0.3,0.2-0.5,0.5-0.5c0.3,0,0.5,0.2,0.5,0.5v3.9h1.4c0.3,0,0.5,0.2,0.5,0.5   C9.2,14.3,8.9,14.6,8.7,14.6z M10.8,14.1c0,0.3-0.2,0.5-0.5,0.5s-0.5-0.2-0.5-0.5V9.7c0-0.3,0.2-0.5,0.5-0.5s0.5,0.2,0.5,0.5V14.1z    M14,14.4c0,0-0.1,0.1-0.2,0.1l0,0c-0.1,0-0.1,0-0.2,0c-0.1,0-0.2,0-0.2-0.1c0,0,0,0,0,0c-0.1-0.1-0.1-0.1-0.2-0.2l0,0l-0.9-2.1v2   c0,0.3-0.2,0.5-0.5,0.5s-0.5-0.2-0.5-0.5V9.7c0-0.1,0-0.1,0-0.2c0,0,0,0,0-0.1c0,0,0-0.1,0.1-0.1c0,0,0.1-0.1,0.2-0.1l0,0   c0,0,0,0,0.1,0c0,0,0.1,0,0.1,0c0,0,0,0,0,0c0,0,0.1,0,0.1,0c0,0,0.1,0,0.1,0.1c0,0,0.1,0,0.1,0c0,0,0.1,0.1,0.1,0.2l0,0l0.9,2.1   v-2c0-0.3,0.2-0.5,0.5-0.5c0.3,0,0.5,0.2,0.5,0.5v4.3c0,0.1,0,0.1,0,0.2C14.1,14.3,14.1,14.3,14,14.4C14.1,14.4,14,14.4,14,14.4z    M17.2,11.4c0.3,0,0.5,0.2,0.5,0.5c0,0.3-0.2,0.5-0.5,0.5h-1.4v1.2h1.4c0.3,0,0.5,0.2,0.5,0.5c0,0.3-0.2,0.5-0.5,0.5h-1.8   c-0.3,0-0.5-0.2-0.5-0.5V9.7c0-0.3,0.2-0.5,0.5-0.5h1.8c0.3,0,0.5,0.2,0.5,0.5c0,0.3-0.2,0.5-0.5,0.5h-1.4v1.2H17.2z"/><path d="M20.4,0.5H3.6c-1.7,0-3.1,1.4-3.1,3.1v16.8c0,1.7,1.4,3.1,3.1,3.1h16.8c1.7,0,3.1-1.4,3.1-3.1V3.6   C23.5,1.9,22.1,0.5,20.4,0.5z M17.8,18l-5.5,3.8c-0.1,0.1-0.2,0.1-0.3,0.1c-0.1,0-0.2,0-0.2-0.1c-0.2-0.1-0.3-0.2-0.3-0.4v-1.7   c-4.9-0.2-8.8-3.6-8.8-7.8C2.7,7.5,6.9,4,12,4s9.3,3.5,9.3,7.8C21.3,14.2,20,16.5,17.8,18z"/></g></svg>